<svg width="27" height="27" viewBox="0 0 27 27" fill="none" xmlns="http://www.w3.org/2000/svg">
<path d="M14.625 10.125H19.6875L19.125 12.375H14.625V22.5H12.375V12.375H7.875V10.125H12.375V8.019C12.375 6.01312 12.5843 5.28525 12.9758 4.55175C13.3597 3.82724 13.9522 3.23467 14.6767 2.85075C15.4102 2.45925 16.1381 2.25 18.144 2.25C18.732 2.25 19.2465 2.30625 19.6875 2.41875V4.5H18.144C16.6545 4.5 16.2011 4.58775 15.7376 4.83525C15.4049 5.00907 15.1336 5.2808 14.9603 5.61375C14.7128 6.07612 14.625 6.5295 14.625 8.019V10.125Z" fill="#181C20"/>
</svg>
