<svg width="22" height="22" viewBox="0 0 22 22" fill="none" xmlns="http://www.w3.org/2000/svg">
<path d="M18.8111 21.87H3.05891C2.24764 21.87 1.46959 21.5477 0.895935 20.9741C0.322277 20.4004 0 19.6224 0 18.8111V3.05891C0 2.24764 0.322277 1.46959 0.895935 0.895935C1.46959 0.322277 2.24764 0 3.05891 0H18.8111C19.6224 0 20.4004 0.322277 20.9741 0.895935C21.5477 1.46959 21.87 2.24764 21.87 3.05891V18.8111C21.87 19.6224 21.5477 20.4004 20.9741 20.9741C20.4004 21.5477 19.6224 21.87 18.8111 21.87ZM3.05891 1.22357C2.57215 1.22357 2.10532 1.41693 1.76113 1.76113C1.41693 2.10532 1.22357 2.57215 1.22357 3.05891V18.8111C1.22357 19.2979 1.41693 19.7647 1.76113 20.1089C2.10532 20.4531 2.57215 20.6464 3.05891 20.6464H18.8111C19.2979 20.6464 19.7647 20.4531 20.1089 20.1089C20.4531 19.7647 20.6464 19.2979 20.6464 18.8111V3.05891C20.6464 2.57215 20.4531 2.10532 20.1089 1.76113C19.7647 1.41693 19.2979 1.22357 18.8111 1.22357H3.05891Z" fill="#181C20"/>
<path d="M10.9353 16.5558C9.82348 16.5546 8.73703 16.2238 7.81323 15.6053C6.88943 14.9867 6.16976 14.1081 5.74519 13.0806C5.32063 12.0531 5.21024 10.9228 5.42796 9.83251C5.64569 8.74227 6.18176 7.74105 6.96842 6.95542C7.75507 6.16979 8.75699 5.63502 9.84752 5.41872C10.938 5.20241 12.0682 5.31428 13.0952 5.74019C14.1221 6.16609 14.9998 6.88691 15.6171 7.81151C16.2345 8.73612 16.5639 9.82301 16.5637 10.9348C16.5617 12.4263 15.9679 13.856 14.9125 14.9099C13.8572 15.9639 12.4267 16.5558 10.9353 16.5558ZM10.9353 6.52995C10.0658 6.53116 9.21619 6.79001 8.49377 7.27382C7.77134 7.75762 7.2085 8.44466 6.87633 9.24817C6.54416 10.0517 6.45756 10.9356 6.62748 11.7883C6.7974 12.641 7.21621 13.4242 7.83102 14.039C8.44582 14.6538 9.22903 15.0726 10.0817 15.2426C10.9344 15.4125 11.8184 15.3259 12.6219 14.9937C13.4254 14.6615 14.1124 14.0987 14.5962 13.3763C15.08 12.6538 15.3389 11.8042 15.3401 10.9348C15.3401 9.76655 14.876 8.64616 14.0499 7.8201C13.2239 6.99403 12.1035 6.52995 10.9353 6.52995Z" fill="#181C20"/>
<path d="M17.2975 5.92437C18.0239 5.92437 18.6128 5.33547 18.6128 4.60903C18.6128 3.8826 18.0239 3.2937 17.2975 3.2937C16.5711 3.2937 15.9822 3.8826 15.9822 4.60903C15.9822 5.33547 16.5711 5.92437 17.2975 5.92437Z" fill="#181C20"/>
</svg>
