<?xml version="1.0" encoding="UTF-8"?>
<svg id="Layer_1" xmlns="http://www.w3.org/2000/svg" version="1.1" viewBox="0 0 728.3 138.76" style="color:white;">
  <style type="text/css"> * { fill: white !important; stroke: white !important; color: white !important; } </style>
  <!-- Generator: Adobe Illustrator 30.0.0, SVG Export Plug-In . SVG Version: 2.1.1 Build 123)  -->
  <defs>
    <style>
      .st0 {
        fill: #231f20;
      }

      .st1 {
        fill: none;
        stroke: #231f20;
        stroke-miterlimit: 10;
        stroke-width: 31px;
      }
    </style>
  </defs>
  <g>
    <g>
      <path class="st0" d="M191.16,52.81h-10.26v30.06h-19.55V1.53h29.8c17.01,0,30.4,7.43,30.4,25.58s-13.39,25.7-30.4,25.7ZM188.39,16.27h-7.6v21.81h7.6c7.6,0,13.39-2.59,13.39-10.96s-5.91-10.84-13.39-10.84Z"/>
      <path class="st0" d="M274.29,82.87l-17.49-31.12h-6.15v31.12h-19.55V1.53h29.92c15.93,0,31.13,6.6,31.13,24.4,0,15.44-10.13,21.45-16.29,23.34l21.11,33.59h-22.68ZM258.24,16.27h-7.72v20.86h7.72c7.24,0,14.24-2.12,14.24-10.49s-7-10.37-14.24-10.37Z"/>
      <path class="st0" d="M342.72,84.28c-24.34,0-43.45-15.43-43.45-41.29S318.38,1.58,342.72,1.58s43.45,15.54,43.45,41.41-19.11,41.29-43.45,41.29ZM342.72,17.58c-13.65,0-23.98,9.63-23.98,24.94s10.33,25.05,23.98,25.05,23.98-9.74,23.98-25.05-10.33-24.94-23.98-24.94Z"/>
      <path class="st0" d="M389.62,78.36l7.24-15.66c3.68,2.55,7.12,3.94,11.99,3.94,6.53,0,11.52-3.94,11.52-12.53V1.35h19.95v51.38c0,21.92-12.82,31.32-30.04,31.32-8.55,0-15.32-1.97-20.66-5.68Z"/>
      <path class="st0" d="M458.77,82.87V1.53h53.93v15.21h-34.51v16.62h32.58v15.21h-32.58v18.86h35.59v15.44h-55.02Z"/>
      <path class="st0" d="M572.78,82.87l-20.87-33.95-6.64,7.19v26.76h-19.42V1.53h19.42v29.7l25.7-29.7h23.17l-29.32,32.42,31.37,48.92h-23.41Z"/>
      <path class="st0" d="M654.22,82.87l-5.91-16.38h-29.68l-5.91,16.38h-20.27L623.82,1.41h20.27l31.37,81.45h-21.23ZM633.47,22.4l-10.38,29.23h20.75l-10.38-29.23Z"/>
      <path class="st0" d="M706.83,16.62v66.25h-19.54V16.62h-21.48V1.53h62.5v15.09h-21.48Z"/>
    </g>
    <g>
      <path class="st0" d="M160.48,138.26v-31.03h20.58v5.8h-13.17v6.34h12.43v5.8h-12.43v7.2h13.58v5.89h-20.99Z"/>
      <path class="st0" d="M207.16,138.26l-13.95-21.05s.14,3.73.14,7.02v14.03h-7.27v-31.03h7.96l13.63,20.87s-.14-3.51-.14-6.79v-14.08h7.27v31.03h-7.64Z"/>
      <path class="st0" d="M233.54,112.98v25.28h-7.46v-25.28h-8.19v-5.76h23.85v5.76h-8.19Z"/>
      <path class="st0" d="M244.82,138.26v-31.03h20.58v5.8h-13.17v6.34h12.43v5.8h-12.43v7.2h13.58v5.89h-20.99Z"/>
      <path class="st0" d="M286.9,138.26l-6.68-11.87h-2.35v11.87h-7.46v-31.03h11.42c6.08,0,11.88,2.52,11.88,9.31,0,5.89-3.87,8.19-6.21,8.91l8.06,12.82h-8.65ZM280.77,112.85h-2.95v7.96h2.95c2.76,0,5.43-.81,5.43-4s-2.67-3.96-5.43-3.96Z"/>
      <path class="st0" d="M298.04,138.26v-31.03h7.46v31.03h-7.46Z"/>
      <path class="st0" d="M329.68,138.26v-31.03h20.58v5.8h-13.17v6.34h12.43v5.8h-12.43v7.2h13.58v5.89h-20.99Z"/>
      <path class="st0" d="M371.76,138.26l-6.68-11.87h-2.35v11.87h-7.46v-31.03h11.42c6.08,0,11.88,2.52,11.88,9.31,0,5.89-3.87,8.19-6.21,8.91l8.06,12.82h-8.65ZM365.64,112.85h-2.95v7.96h2.95c2.76,0,5.43-.81,5.43-4s-2.67-3.96-5.43-3.96Z"/>
      <path class="st0" d="M382.9,138.26v-31.03h7.46v31.03h-7.46Z"/>
      <path class="st0" d="M405.23,138.26v-31.03h7.46v31.03h-7.46Z"/>
      <path class="st0" d="M448.05,138.26l-2.26-6.25h-11.33l-2.26,6.25h-7.73l11.97-31.08h7.73l11.97,31.08h-8.1ZM440.13,115.19l-3.96,11.15h7.92l-3.96-11.15Z"/>
      <path class="st0" d="M475.35,138.26l-6.68-11.87h-2.35v11.87h-7.46v-31.03h11.42c6.08,0,11.88,2.52,11.88,9.31,0,5.89-3.87,8.19-6.21,8.91l8.06,12.82h-8.65ZM469.22,112.85h-2.95v7.96h2.95c2.76,0,5.43-.81,5.43-4s-2.67-3.96-5.43-3.96Z"/>
      <path class="st0" d="M506.7,138.26v-13h-12.75v13h-7.46v-31.03h7.46v12.01h12.75v-12.01h7.46v31.03h-7.46Z"/>
      <path class="st0" d="M519.96,138.26v-31.03h7.46v31.03h-7.46Z"/>
      <path class="st0" d="M549.87,112.98v25.28h-7.46v-25.28h-8.19v-5.76h23.85v5.76h-8.19Z"/>
      <path class="st0" d="M561.14,138.26v-31.03h20.58v5.8h-13.17v6.34h12.43v5.8h-12.43v7.2h13.58v5.89h-20.99Z"/>
      <path class="st0" d="M604.65,138.26l-7.96-12.95-2.53,2.74v10.21h-7.41v-31.03h7.41v11.33l9.81-11.33h8.84l-11.19,12.37,11.97,18.67h-8.93Z"/>
      <path class="st0" d="M628.64,112.98v25.28h-7.46v-25.28h-8.19v-5.76h23.85v5.76h-8.19Z"/>
      <path class="st0" d="M663.25,135.07c-2.21,2.34-5.66,3.69-10.27,3.69s-8.06-1.35-10.31-3.69c-2.21-2.38-2.99-5.4-2.99-9.76v-18.08h7.5v18.08c0,2.2.19,3.91,1.24,5.17,1.01,1.17,2.49,1.93,4.56,1.93s3.54-.76,4.56-1.93c1.06-1.26,1.24-2.97,1.24-5.17v-18.08h7.5v18.08c0,4.36-.78,7.38-3.04,9.76Z"/>
      <path class="st0" d="M688.35,138.26l-6.68-11.87h-2.35v11.87h-7.46v-31.03h11.42c6.08,0,11.88,2.52,11.88,9.31,0,5.89-3.87,8.19-6.21,8.91l8.06,12.82h-8.65ZM682.22,112.85h-2.95v7.96h2.95c2.76,0,5.43-.81,5.43-4s-2.67-3.96-5.43-3.96Z"/>
      <path class="st0" d="M720.2,138.26l-2.26-6.25h-11.33l-2.26,6.25h-7.73l11.97-31.08h7.73l11.97,31.08h-8.1ZM712.28,115.19l-3.96,11.15h7.92l-3.96-11.15Z"/>
    </g>
  </g>
  <path class="st1" d="M15.17,75.79"/>
  <polyline class="st1" points="15.5 138.75 15.5 126.33 15.5 82.87"/>
  <path class="st1" d="M43.51,123.23h25.33c29.17,0,52.82-23.65,52.82-52.82s-23.65-52.82-52.82-52.82-52.82,23.65-52.82,52.82"/>
  <path class="st0" d="M307.37,136.13l2.72-5.88c1.38.96,2.67,1.48,4.5,1.48,2.45,0,4.32-1.48,4.32-4.7v-19.8h7.48v19.28c0,8.23-4.81,11.75-11.27,11.75-3.21,0-5.75-.74-7.75-2.13Z"/>
</svg>