<?xml version="1.0" encoding="UTF-8"?>
<svg id="Layer_1" data-name="Layer 1" xmlns="http://www.w3.org/2000/svg" viewBox="0 0 728.3 138.76">
  <defs>
    <style>
      .cls-1 {
        fill: #231f20;
      }

      .cls-2 {
        fill: none;
        stroke: #231f20;
        stroke-miterlimit: 10;
        stroke-width: 31px;
      }
    </style>
  </defs>
  <g>
    <g>
      <path class="cls-1" d="M191.16,52.81h-10.26v30.06h-19.55V1.53h29.8c17.01,0,30.4,7.43,30.4,25.58s-13.39,25.7-30.4,25.7ZM188.39,16.27h-7.6v21.81h7.6c7.6,0,13.39-2.59,13.39-10.96s-5.91-10.84-13.39-10.84Z"/>
      <path class="cls-1" d="M274.29,82.87l-17.49-31.12h-6.15v31.12h-19.55V1.53h29.92c15.93,0,31.13,6.6,31.13,24.4,0,15.44-10.13,21.45-16.29,23.34l21.11,33.59h-22.68ZM258.24,16.27h-7.72v20.86h7.72c7.24,0,14.24-2.12,14.24-10.49s-7-10.37-14.24-10.37Z"/>
      <path class="cls-1" d="M343.42,84.28c-24.73,0-44.16-15.68-44.16-41.96S318.69.24,343.42.24s44.16,15.79,44.16,42.08-19.42,41.96-44.16,41.96ZM343.42,16.5c-13.87,0-24.37,9.78-24.37,25.34s10.5,25.46,24.37,25.46,24.37-9.9,24.37-25.46-10.5-25.34-24.37-25.34Z"/>
      <path class="cls-1" d="M391.08,78.27l7.36-15.91c3.74,2.59,7.24,4.01,12.19,4.01,6.64,0,11.7-4.01,11.7-12.73V0h20.27v52.22c0,22.28-13.03,31.83-30.52,31.83-8.69,0-15.56-2-20.99-5.78Z"/>
      <path class="cls-1" d="M458.77,82.87V1.53h53.93v15.21h-34.51v16.62h32.58v15.21h-32.58v18.86h35.59v15.44h-55.02Z"/>
      <path class="cls-1" d="M572.78,82.87l-20.87-33.95-6.64,7.19v26.76h-19.42V1.53h19.42v29.7l25.7-29.7h23.17l-29.32,32.42,31.37,48.92h-23.41Z"/>
      <path class="cls-1" d="M654.22,82.87l-5.91-16.38h-29.68l-5.91,16.38h-20.27L623.82,1.41h20.27l31.37,81.45h-21.23ZM633.47,22.4l-10.38,29.23h20.75l-10.38-29.23Z"/>
      <path class="cls-1" d="M706.83,16.62v66.25h-19.54V16.62h-21.48V1.53h62.5v15.09h-21.48Z"/>
    </g>
    <g>
      <path class="cls-1" d="M160.48,138.28v-29.51h19.56v5.52h-12.52v6.03h11.82v5.52h-11.82v6.84h12.91v5.6h-19.96Z"/>
      <path class="cls-1" d="M204.86,138.28l-13.26-20.01s.13,3.55.13,6.67v13.34h-6.92v-29.51h7.57l12.96,19.84s-.13-3.34-.13-6.46v-13.38h6.92v29.51h-7.27Z"/>
      <path class="cls-1" d="M229.94,114.25v24.03h-7.09v-24.03h-7.79v-5.47h22.67v5.47h-7.79Z"/>
      <path class="cls-1" d="M240.66,138.28v-29.51h19.56v5.52h-12.52v6.03h11.82v5.52h-11.82v6.84h12.91v5.6h-19.96Z"/>
      <path class="cls-1" d="M280.67,138.28l-6.35-11.29h-2.23v11.29h-7.09v-29.51h10.85c5.78,0,11.29,2.39,11.29,8.85,0,5.6-3.68,7.78-5.91,8.47l7.66,12.19h-8.23ZM274.85,114.12h-2.8v7.57h2.8c2.63,0,5.16-.77,5.16-3.81s-2.54-3.76-5.16-3.76Z"/>
      <path class="cls-1" d="M291.26,138.28v-29.51h7.09v29.51h-7.09Z"/>
      <path class="cls-1" d="M321.35,138.28v-29.51h19.56v5.52h-12.52v6.03h11.82v5.52h-11.82v6.84h12.91v5.6h-19.96Z"/>
      <path class="cls-1" d="M361.35,138.28l-6.35-11.29h-2.23v11.29h-7.09v-29.51h10.85c5.78,0,11.29,2.39,11.29,8.85,0,5.6-3.68,7.78-5.91,8.47l7.66,12.19h-8.23ZM355.53,114.12h-2.8v7.57h2.8c2.63,0,5.16-.77,5.16-3.81s-2.54-3.76-5.16-3.76Z"/>
      <path class="cls-1" d="M371.95,138.28v-29.51h7.09v29.51h-7.09Z"/>
      <path class="cls-1" d="M393.17,138.28v-29.51h7.09v29.51h-7.09Z"/>
      <path class="cls-1" d="M433.88,138.28l-2.14-5.94h-10.77l-2.14,5.94h-7.35l11.38-29.55h7.35l11.38,29.55h-7.7ZM426.35,116.35l-3.76,10.6h7.53l-3.76-10.6Z"/>
      <path class="cls-1" d="M459.84,138.28l-6.35-11.29h-2.23v11.29h-7.09v-29.51h10.85c5.78,0,11.29,2.39,11.29,8.85,0,5.6-3.68,7.78-5.91,8.47l7.66,12.19h-8.23ZM454.01,114.12h-2.8v7.57h2.8c2.63,0,5.16-.77,5.16-3.81s-2.54-3.76-5.16-3.76Z"/>
      <path class="cls-1" d="M489.64,138.28v-12.36h-12.12v12.36h-7.09v-29.51h7.09v11.42h12.12v-11.42h7.09v29.51h-7.09Z"/>
      <path class="cls-1" d="M502.25,138.28v-29.51h7.09v29.51h-7.09Z"/>
      <path class="cls-1" d="M531.88,138.28l-7.57-12.32-2.41,2.61v9.71h-7.05v-29.51h7.05v10.78l9.32-10.78h8.4l-10.64,11.76,11.38,17.75h-8.49Z"/>
      <path class="cls-1" d="M554.68,114.25v24.03h-7.09v-24.03h-7.79v-5.47h22.67v5.47h-7.79Z"/>
      <path class="cls-1" d="M565.41,138.28v-29.51h19.56v5.52h-12.52v6.03h11.82v5.52h-11.82v6.84h12.91v5.6h-19.96Z"/>
      <path class="cls-1" d="M606.77,138.28l-7.57-12.32-2.41,2.61v9.71h-7.05v-29.51h7.05v10.78l9.32-10.78h8.4l-10.64,11.76,11.38,17.75h-8.49Z"/>
      <path class="cls-1" d="M629.57,114.25v24.03h-7.09v-24.03h-7.79v-5.47h22.67v5.47h-7.79Z"/>
      <path class="cls-1" d="M662.49,135.25c-2.1,2.22-5.38,3.51-9.76,3.51s-7.66-1.28-9.8-3.51c-2.1-2.27-2.84-5.13-2.84-9.28v-17.19h7.13v17.19c0,2.1.18,3.72,1.18,4.92.96,1.11,2.36,1.84,4.33,1.84s3.37-.73,4.33-1.84c1.01-1.2,1.18-2.82,1.18-4.92v-17.19h7.13v17.19c0,4.15-.74,7.01-2.89,9.28Z"/>
      <path class="cls-1" d="M686.34,138.28l-6.35-11.29h-2.23v11.29h-7.09v-29.51h10.85c5.78,0,11.29,2.39,11.29,8.85,0,5.6-3.68,7.78-5.91,8.47l7.66,12.19h-8.23ZM680.52,114.12h-2.8v7.57h2.8c2.63,0,5.16-.77,5.16-3.81s-2.54-3.76-5.16-3.76Z"/>
      <path class="cls-1" d="M716.63,138.28l-2.14-5.94h-10.77l-2.14,5.94h-7.35l11.38-29.55h7.35l11.38,29.55h-7.7ZM709.1,116.35l-3.76,10.6h7.53l-3.76-10.6Z"/>
    </g>
  </g>
  <polyline class="cls-2" points="15.5 138.75 15.5 126.33 15.5 82.87"/>
  <path class="cls-2" d="M43.51,123.23h25.33c29.17,0,52.82-23.65,52.82-52.82s-23.65-52.82-52.82-52.82-52.82,23.65-52.82,52.82"/>
  <path class="cls-1" d="M300.24,136.25l2.59-5.59c1.32.91,2.55,1.41,4.28,1.41,2.33,0,4.11-1.41,4.11-4.48v-18.86h7.13v18.36c0,7.83-4.58,11.19-10.73,11.19-3.05,0-5.47-.7-7.38-2.03Z"/>
</svg>